HIERARCHY
ROOT Hips
{
	OFFSET -3.958830 18.904000 13.208200
	CHANNELS 6 Xposition Yposition Zposition Zrotation Yrotation Xrotation 
	JOINT LHipJoint
	{
		OFFSET 0.000000 0.000000 0.000000
		CHANNELS 3 Zrotation Yrotation Xrotation
		JOINT LeftUpLeg
		{
			OFFSET 1.800000 -1.400000 0.085000
			CHANNELS 3 Zrotation Yrotation Xrotation
			JOINT LeftLeg
			{
				OFFSET 2.215000 -6.000000 0.000000
				CHANNELS 3 Zrotation Yrotation Xrotation
				JOINT LeftFoot
				{
					OFFSET 2.500000 -6.900000 0.000000
					CHANNELS 3 Zrotation Yrotation Xrotation
					JOINT LeftToeBase
					{
						OFFSET 0.200000 -0.500000 1.950000
						CHANNELS 3 Zrotation Yrotation Xrotation
						End Site
						{
							OFFSET 0.000000 0.000000 0.000000
						}
					}
				}
			}
		}
	}
	JOINT RHipJoint
	{
		OFFSET 0.000000 0.000000 0.000000
		CHANNELS 3 Zrotation Yrotation Xrotation
		JOINT RightUpLeg
		{
			OFFSET -1.800000 -1.400000 0.085000
			CHANNELS 3 Zrotation Yrotation Xrotation
			JOINT RightLeg
			{
				OFFSET -2.215000 -6.000000 0.000000
				CHANNELS 3 Zrotation Yrotation Xrotation
				JOINT RightFoot
				{
					OFFSET -2.500000 -6.900000 0.000000
					CHANNELS 3 Zrotation Yrotation Xrotation
					JOINT RightToeBase
					{
						OFFSET -0.200000 -0.500000 1.950000
						CHANNELS 3 Zrotation Yrotation Xrotation
						End Site
						{
							OFFSET 0.000000 0.000000 0.000000
						}
					}
				}
			}
		}
	}
	JOINT LowerBack
	{
		OFFSET 0.000000 0.000000 0.000000
		CHANNELS 3 Zrotation Yrotation Xrotation
		JOINT Spine
		{
			OFFSET -0.087000 1.940000 -0.288900
			CHANNELS 3 Zrotation Yrotation Xrotation
			JOINT Spine1
			{
				OFFSET 0.000000 1.950000 0.060000
				CHANNELS 3 Zrotation Yrotation Xrotation
				JOINT Neck
				{
					OFFSET 0.000000 0.000000 0.000000
					CHANNELS 3 Zrotation Yrotation Xrotation
					JOINT Neck1
					{
						OFFSET 0.000000 1.600000 0.340000
						CHANNELS 3 Zrotation Yrotation Xrotation
						JOINT Head
						{
							OFFSET 0.000000 1.667000 -0.240000
							CHANNELS 3 Zrotation Yrotation Xrotation
							End Site
							{
								OFFSET 0.000000 0.000000 0.000000
							}
						}
					}
				}
				JOINT LeftShoulder
				{
					OFFSET 0.000000 0.000000 0.000000
					CHANNELS 3 Zrotation Yrotation Xrotation
					JOINT LeftArm
					{
						OFFSET 2.700000 1.550000 -0.730000
						CHANNELS 3 Zrotation Yrotation Xrotation
						JOINT LeftForeArm
						{
							OFFSET 5.450000 0.000000 0.000000
							CHANNELS 3 Zrotation Yrotation Xrotation
							JOINT LeftHand
							{
								OFFSET 3.450000 0.000000 0.000000
								CHANNELS 3 Zrotation Yrotation Xrotation
								JOINT LeftHandIndex1
								{
									OFFSET 0.750000 0.000000 0.000000
									CHANNELS 3 Zrotation Yrotation Xrotation
									End Site
									{
										OFFSET 0.000000 0.000000 0.000000
									}
								}
							}
						}
					}
				}
				JOINT RightShoulder
				{
					OFFSET 0.000000 0.000000 0.000000
					CHANNELS 3 Zrotation Yrotation Xrotation
					JOINT RightArm
					{
						OFFSET -2.700000 1.550000 -0.730000
						CHANNELS 3 Zrotation Yrotation Xrotation
						JOINT RightForeArm
						{
							OFFSET -5.450000 0.000000 0.000000
							CHANNELS 3 Zrotation Yrotation Xrotation
							JOINT RightHand
							{
								OFFSET -3.450000 0.000000 0.000000
								CHANNELS 3 Zrotation Yrotation Xrotation
								JOINT RightHandIndex1
								{
									OFFSET -0.750000 0.000000 0.000000
									CHANNELS 3 Zrotation Yrotation Xrotation
									End Site
									{
										OFFSET 0.000000 0.000000 0.000000
									}
								}
							}
						}
					}
				}
			}
		}
	}
}
MOTION
Frames: 14
Frame Time: 0.016667
-0.140360 15.975560 -1.391960 -3.021819 -2.504851 -6.685239 -15.646865 11.957644 4.341062 5.913272 -9.956524 -35.783367 4.592619 11.114014 69.719566 0.765515 12.315019 0.327327 1.024740 0.765050 0.851910 18.248124 -8.736017 3.538193 1.140048 10.163440 -34.363331 -7.403556 -8.758620 76.497596 -2.219354 -11.509995 0.604257 0.605340 0.087790 0.306790 -2.872548 -3.306470 -8.844527 2.483540 0.156767 35.378657 1.744803 2.086368 12.149787 -0.425302 -0.203984 -7.442579 -2.501031 2.568326 32.785234 -4.124290 5.084540 -18.068360 7.216889 -17.385229 -2.585088 -5.828168 -31.751000 -5.094301 0.064230 -74.437910 -1.955427 -3.461999 3.302896 0.550600 0.171300 0.120470 0.264130 -6.751516 19.464766 6.224568 18.114507 15.873062 -11.051823 14.044155 81.202438 5.892512 1.322891 -2.072992 -0.131660 0.306990 -0.289380 -0.347050 
-0.121400 15.883810 -1.420280 -3.140911 -5.622146 -7.289842 -15.642113 12.056815 4.275622 5.311340 -9.798364 -34.980840 5.342806 10.943208 71.170236 0.857374 12.473838 0.280079 1.021250 0.738400 0.893330 18.246304 -8.638645 3.658468 2.238827 10.925369 -33.870512 -7.742114 -8.458206 77.625745 -2.292216 -11.605559 0.581709 0.562850 0.015310 0.295830 -2.877208 -3.483803 -8.900839 3.581594 -0.099797 37.678362 1.401031 2.201676 11.141678 0.059118 -1.351086 -7.975101 -4.625995 3.889768 33.786201 -4.990270 5.518690 -19.073780 6.283605 -18.301948 -1.747227 0.334288 -27.776641 -5.848789 -7.170154 -68.861734 4.108246 -3.423284 3.363769 0.600540 0.109820 0.164320 0.239140 -6.875639 21.313675 6.030567 9.376513 14.874906 -10.534170 30.782712 82.548915 20.272998 1.437535 -2.184954 -0.120570 0.278490 -0.305510 -0.368860 
-0.110230 15.823030 -1.435930 -3.419084 -9.100365 -7.090345 -15.677386 12.131097 4.306294 6.178288 -9.385670 -35.176797 4.314925 12.281826 72.139005 1.016999 12.744817 0.178037 0.969550 0.679420 0.888340 18.214289 -8.473048 3.742144 3.327005 11.606574 -33.444842 -8.454378 -7.628915 77.765054 -2.312885 -11.516266 0.608790 0.460710 -0.073880 0.322620 -2.784321 -3.776659 -9.008947 4.225160 -0.224259 39.008472 1.635285 2.366273 9.752272 0.874868 -2.362784 -8.827404 -6.776815 5.016447 35.786310 -7.295180 6.268340 -20.060190 4.568862 -18.395792 -0.438250 4.262489 -23.359601 -5.301238 -19.536557 -65.576220 12.326845 -3.401076 3.472069 0.625630 0.055150 0.223030 0.194550 -6.715392 22.482788 5.924990 2.741653 14.840733 -9.399881 47.359951 83.714469 34.897012 1.627018 -2.138445 -0.058840 0.190810 -0.296500 -0.370610 
-0.093890 15.767680 -1.431760 -3.571543 -13.502582 -5.706924 -15.680021 11.957867 4.383691 8.077792 -8.444096 -36.557011 2.083219 14.907224 72.531608 1.229111 13.176988 0.063900 0.936650 0.641800 0.878910 18.244891 -8.302168 3.897186 3.978555 12.757338 -34.277681 -9.954395 -5.894320 77.857593 -2.293729 -11.417613 0.651803 0.387040 -0.102160 0.351210 -2.855844 -3.651931 -9.143281 5.391973 -0.223825 38.188850 1.114955 2.606279 8.853745 1.402824 -2.947790 -9.480984 -7.825649 6.324233 36.467176 -8.765710 7.420770 -18.841980 3.717923 -16.928214 0.707203 6.006751 -19.186217 -4.019512 -30.690745 -64.538029 19.437888 -3.418431 3.584299 0.577110 0.053810 0.233750 0.189300 -6.845013 21.643671 5.845488 -0.195436 16.795906 -6.699414 63.730016 86.976613 49.700092 1.989705 -1.672552 0.004680 0.107900 -0.316030 -0.346990 
-0.080750 15.746980 -1.414980 -3.564213 -17.059213 -3.977510 -15.678748 11.662190 4.580135 10.304708 -7.788921 -38.264456 -1.111883 18.061974 72.374070 1.411364 13.726429 -0.065047 0.877680 0.578500 0.836970 18.288719 -8.165972 3.956661 3.681320 13.376705 -35.595792 -10.817388 -4.831238 77.061397 -2.225934 -11.252415 0.712577 0.328220 -0.070570 0.363750 -2.983065 -3.399309 -9.255066 6.429688 -0.637583 36.775903 0.214409 2.289970 7.490686 1.835018 -3.289655 -9.335418 -8.117406 7.830177 36.091431 -9.597910 8.806360 -17.586020 2.945506 -15.081964 2.264718 6.108891 -14.493178 -2.418141 -44.753775 -64.347088 28.269140 -3.497947 3.650986 0.540280 0.081820 0.212140 0.191240 -6.822030 19.636101 4.012931 1.051962 20.361201 -5.588281 91.866270 85.950850 73.207039 3.332772 2.731081 0.015170 0.079770 -0.305340 -0.327340 
-0.063750 15.785240 -1.384220 -3.560756 -19.920627 -2.491289 -15.638874 11.347543 4.744537 12.508458 -6.975860 -39.263657 -4.253512 20.606060 70.752359 1.543143 14.006296 -0.119767 0.783370 0.458840 0.771000 18.346265 -8.191138 3.989583 2.170791 13.651330 -37.071897 -9.862690 -5.308428 75.275197 -2.096701 -10.983870 0.786940 0.232610 -0.046120 0.373990 -3.192113 -2.841245 -9.356896 8.563457 -0.903106 35.523635 -0.596904 2.579427 6.393815 2.394101 -3.811168 -9.775704 -8.296797 9.042302 36.264120 -10.436010 10.112260 -15.526310 1.554484 -15.337213 4.518242 5.119732 -9.116205 -1.474698 -58.794812 -64.526190 37.326356 -3.550144 3.703551 0.508760 0.099260 0.174250 0.175310 -6.334670 20.714083 2.068094 4.560720 15.705272 -12.076261 125.126272 74.778963 105.275402 1.879917 0.009968 0.022360 0.022600 -0.274020 -0.314280 
-0.048670 15.855180 -1.331810 -3.831437 -22.274460 -1.121106 -15.584027 11.099355 4.878312 14.954687 -5.967629 -39.633583 -7.330619 22.779426 68.416482 1.624137 14.156168 -0.141879 0.673580 0.331410 0.706530 18.414701 -8.164265 4.031510 -0.303595 13.840343 -38.751696 -6.850938 -7.705603 73.971136 -1.994825 -10.913000 0.809400 0.142600 -0.010740 0.369140 -3.455761 -2.453914 -9.423454 11.129439 -1.983630 33.914625 -2.085677 1.948838 6.835480 2.862024 -3.856241 -10.775351 -8.043796 9.824942 35.750197 -11.699030 11.282290 -13.731670 -0.234041 -14.072701 5.712643 3.269138 -3.807435 -0.754854 -72.356281 -63.377238 45.097557 -3.649372 3.674541 0.475170 0.127580 0.129350 0.146190 -5.483640 19.295880 3.189332 8.279821 16.085817 -10.577558 151.620617 72.881998 134.677065 1.619815 -1.420261 0.011340 -0.005360 -0.228610 -0.307650 
-0.034580 15.949930 -1.253850 -3.826212 -24.277227 -0.028419 -15.572451 10.947681 5.005600 17.236160 -5.077245 -39.407557 -10.381829 24.761718 66.038776 1.733085 14.281122 -0.139986 0.610920 0.242990 0.659920 18.434421 -8.107779 4.005642 -4.084704 13.434772 -40.190536 -2.398638 -11.250946 72.197612 -1.928967 -11.023065 0.778358 0.073100 0.024280 0.393010 -3.581291 -2.308400 -9.459885 12.783410 -2.806253 32.060784 -2.559668 1.187615 7.023655 3.243801 -4.014591 -11.471104 -8.060548 10.459142 34.577795 -12.940680 12.373160 -10.692840 -2.735974 -12.871734 6.843182 0.046935 1.488008 -0.407627 -83.121508 -60.464514 49.339683 -3.720184 3.734149 0.419230 0.171430 0.083840 0.151800 -3.689122 18.050030 3.792539 11.482798 16.337353 -8.895304 161.048693 68.510592 142.218230 1.661981 -1.750552 0.026590 -0.068710 -0.221660 -0.291080 
-0.026560 16.058630 -1.175540 -3.702907 -25.376734 0.253909 -15.499232 10.887344 4.947367 18.571677 -4.469401 -38.096684 -11.538525 25.213982 64.207969 1.754801 14.152920 -0.074897 0.558830 0.180520 0.626330 18.482753 -8.209879 3.994575 -8.841608 12.411958 -40.688054 3.708403 -15.774190 69.457056 -1.921529 -11.295786 0.691512 0.030170 0.055430 0.395710 -3.812685 -1.996762 -9.398877 14.915606 -3.952877 30.416188 -3.820304 0.077547 7.840242 3.563090 -3.833134 -11.937701 -7.431414 11.076843 33.844068 -13.636830 13.375830 -8.625650 -4.462084 -11.600847 7.647424 -3.863697 6.336377 -0.918935 -89.760613 -56.838512 49.594100 -3.735794 3.789068 0.383630 0.199750 0.056230 0.159330 -2.598354 16.162368 4.314631 17.201902 16.710561 -7.446440 165.045151 65.097064 143.758568 1.713416 -1.882668 0.022010 -0.091360 -0.219690 -0.277460 
-0.039290 16.149190 -1.084440 -3.194784 -26.139555 0.839870 -15.446707 10.796064 4.773761 19.258842 -4.003494 -37.075838 -11.265322 24.900211 63.119028 1.721317 13.965203 0.006623 0.523490 0.132560 0.599700 18.532669 -8.192020 4.147169 -14.276119 11.276453 -41.665591 10.708272 -20.516795 66.234120 -1.971877 -11.781701 0.542435 0.016650 0.100420 0.398200 -4.030789 -1.748762 -9.341317 16.442731 -4.636178 27.841558 -4.506701 -0.910120 8.518304 3.553065 -3.780583 -12.067984 -7.007025 11.738596 32.094117 -14.055870 14.209450 -6.163470 -5.694567 -9.631182 7.863314 -9.149041 9.585993 -1.769873 -92.162645 -52.262331 45.702535 -3.744717 3.854129 0.340240 0.247200 0.010860 0.176610 -1.321954 13.665157 4.751479 24.403390 16.588888 -5.786803 166.964187 62.253599 143.184739 1.749885 -2.012747 0.001580 -0.110190 -0.225260 -0.270940 
-0.065260 16.215580 -0.986430 -2.353463 -26.416727 1.249570 -15.361577 10.759164 4.424137 19.093585 -3.748921 -35.686546 -9.107192 23.352885 62.713479 1.647396 13.579921 0.136443 0.470170 0.074320 0.560410 18.611568 -8.223868 4.403420 -19.882832 9.642468 -42.201948 17.954232 -24.757895 62.012255 -2.011530 -12.145780 0.438756 -0.013970 0.148420 0.396430 -4.320759 -1.437715 -9.229547 18.077488 -5.082465 24.560707 -5.582137 -1.798056 9.089157 3.344961 -3.600130 -11.984712 -6.494207 12.073804 31.129271 -14.059520 14.730560 -3.690250 -6.609164 -7.123992 7.368796 -13.969717 11.355664 -2.774275 -91.979791 -46.641372 39.258740 -3.755604 3.880849 0.288060 0.294020 -0.035300 0.180330 -0.023444 10.364402 5.417587 33.857057 14.921468 -3.968619 167.477186 59.339211 140.770075 1.813056 -2.129881 -0.008540 -0.123520 -0.215270 -0.256940 
-0.102290 16.269270 -0.882760 -1.838971 -27.142726 1.096250 -15.285423 10.979215 3.875612 18.593984 -3.128734 -33.165617 -5.254567 20.684521 62.466516 1.495222 12.954092 0.329108 0.438360 0.026990 0.543810 18.662535 -8.279340 4.708368 -24.651151 8.290123 -41.692339 25.242338 -27.860873 56.908650 -2.036947 -12.200285 0.434681 -0.039260 0.176580 0.383560 -4.520735 -1.372426 -9.054897 19.640698 -5.126406 22.223574 -5.812451 -2.208856 9.021276 3.130571 -3.987977 -11.619094 -7.165500 12.456282 30.912106 -14.225100 14.938230 -2.357880 -7.843872 -3.940932 6.609330 -19.242522 13.366641 -4.133292 -91.416092 -41.591344 33.269531 -3.726372 3.855836 0.289550 0.306210 -0.051330 0.193460 1.616169 7.017793 5.593673 40.723598 11.355235 -3.030906 165.010784 55.700705 133.295841 1.892182 -2.222273 -0.032960 -0.108730 -0.216280 -0.253050 
-0.143210 16.308760 -0.795550 -1.130555 -27.623139 1.118832 -15.204307 11.259932 3.227617 17.392296 -2.675550 -30.803036 -0.485043 16.824539 61.142752 1.258428 11.962250 0.633999 0.417790 -0.006470 0.524910 18.730202 -8.346976 5.065532 -29.462977 6.691890 -41.301960 32.867853 -30.011377 50.838463 -2.008519 -12.006619 0.493889 -0.048630 0.208930 0.363650 -4.734364 -1.353134 -8.817112 21.062558 -5.329630 19.964956 -6.240073 -2.753016 8.251240 2.672036 -4.818596 -10.912656 -8.626290 13.191566 29.973771 -13.548020 14.904300 -0.686980 -8.937750 -0.282741 5.634013 -23.663655 15.642604 -5.555643 -89.484506 -35.823832 26.243080 -3.688838 3.831078 0.280660 0.317430 -0.079290 0.210470 3.580592 3.475223 5.340622 46.552135 6.603020 -2.627462 160.984770 51.936949 122.795192 1.961304 -2.356510 -0.058910 -0.097070 -0.223110 -0.245570 
-0.181770 16.330950 -0.716430 -0.829442 -28.368560 0.888466 -15.122764 11.700121 2.551794 16.524272 -1.917567 -27.591173 4.308813 12.786792 58.403167 1.036368 10.803025 0.999704 0.366480 -0.070780 0.472790 18.773226 -8.511641 5.337419 -33.143072 5.507647 -39.920176 39.623786 -30.439270 44.430697 -1.920203 -11.551440 0.635970 -0.096250 0.243010 0.356710 -4.873991 -1.417287 -8.540068 22.440782 -5.717390 18.548801 -6.321970 -3.341438 7.209508 2.338626 -5.662810 -10.405192 -10.109261 14.033491 29.309760 -12.970660 15.247430 1.062520 -9.680269 3.143825 5.244110 -28.434254 19.648553 -7.659356 -87.983758 -31.352717 20.618662 -3.649776 3.804764 0.270580 0.325920 -0.103660 0.218610 4.950064 0.358700 4.869986 51.284808 2.228814 -3.360747 157.838469 49.515057 114.735715 2.006767 -2.443289 -0.066410 -0.102440 -0.205970 -0.228570 
